<svg width="24" height="24" viewBox="0 0 24 24" fill="none" xmlns="http://www.w3.org/2000/svg">
<path d="M11.25 5.21156V1.51929H12.75V5.21156H11.25ZM17.3231 7.73079L16.2942 6.70196L18.8731 4.03851L19.9365 5.11734L17.3231 7.73079ZM18.7885 12.75V11.25H22.4807V12.75H18.7885ZM11.25 22.4807V18.7981H12.75V22.4807H11.25ZM6.69619 7.69039L4.03851 5.12696L5.12696 4.07314L7.74039 6.67696L6.69619 7.69039ZM18.8577 19.9615L16.2942 17.2981L17.3077 16.2942L19.9269 18.8423L18.8577 19.9615ZM1.51929 12.75V11.25H5.21156V12.75H1.51929ZM5.11734 19.9615L4.07314 18.8731L6.65196 16.2942L7.19426 16.8058L7.74616 17.3327L5.11734 19.9615ZM12.0023 17.5C10.4751 17.5 9.17631 16.9655 8.10581 15.8965C7.0353 14.8275 6.50004 13.5294 6.50004 12.0023C6.50004 10.4751 7.03454 9.17631 8.10354 8.10581C9.17254 7.0353 10.4706 6.50004 11.9977 6.50004C13.5249 6.50004 14.8237 7.03454 15.8942 8.10354C16.9647 9.17254 17.5 10.4706 17.5 11.9977C17.5 13.5249 16.9655 14.8237 15.8965 15.8942C14.8275 16.9647 13.5294 17.5 12.0023 17.5ZM12 16C13.1 16 14.0417 15.6083 14.825 14.825C15.6083 14.0417 16 13.1 16 12C16 10.9 15.6083 9.95835 14.825 9.17501C14.0417 8.39168 13.1 8.00001 12 8.00001C10.9 8.00001 9.95835 8.39168 9.17501 9.17501C8.39168 9.95835 8.00001 10.9 8.00001 12C8.00001 13.1 8.39168 14.0417 9.17501 14.825C9.95835 15.6083 10.9 16 12 16Z" fill="white"/>
</svg>
