<svg width="24" height="24" viewBox="0 0 24 24" fill="none" xmlns="http://www.w3.org/2000/svg">
<path d="M12 8.94237C11.1359 8.94237 10.4006 8.63917 9.79424 8.03277C9.18784 7.42637 8.88464 6.69112 8.88464 5.82702C8.88464 4.96292 9.18784 4.22767 9.79424 3.62127C10.4006 3.01487 11.1359 2.71167 12 2.71167C12.8641 2.71167 13.5993 3.01487 14.2057 3.62127C14.8121 4.22767 15.1153 4.96292 15.1153 5.82702C15.1153 6.69112 14.8121 7.42637 14.2057 8.03277C13.5993 8.63917 12.8641 8.94237 12 8.94237ZM12 7.44242C12.4487 7.44242 12.8301 7.28536 13.1442 6.97124C13.4583 6.65714 13.6154 6.27574 13.6154 5.82702C13.6154 5.3783 13.4583 4.99689 13.1442 4.68277C12.8301 4.36867 12.4487 4.21162 12 4.21162C11.5513 4.21162 11.1699 4.36867 10.8558 4.68277C10.5417 4.99689 10.3846 5.3783 10.3846 5.82702C10.3846 6.27574 10.5417 6.65714 10.8558 6.97124C11.1699 7.28536 11.5513 7.44242 12 7.44242ZM12 21.1346L6.26924 15.4039C5.97438 15.109 5.75323 14.7741 5.60579 14.3991C5.45836 14.0241 5.38464 13.6143 5.38464 13.1697C5.38464 12.2954 5.68505 11.5582 6.28587 10.958C6.88669 10.3579 7.62473 10.0578 8.49999 10.0578C8.92851 10.0578 9.32378 10.1382 9.68579 10.2991C10.0478 10.46 10.3795 10.6911 10.6807 10.9924L12 12.3116L13.3192 10.9924C13.6141 10.6975 13.9449 10.468 14.3115 10.3039C14.6782 10.1398 15.0757 10.0578 15.5041 10.0578C16.3757 10.0578 17.1122 10.3579 17.7134 10.958C18.3147 11.5582 18.6153 12.2954 18.6153 13.1697C18.6153 13.6143 18.5416 14.0241 18.3942 14.3991C18.2468 14.7741 18.0256 15.109 17.7307 15.4039L12 21.1346ZM12 18.9962L16.6461 14.35C16.809 14.1872 16.9279 14.0052 17.0029 13.8039C17.0779 13.6026 17.1154 13.394 17.1154 13.1779C17.1154 12.7459 16.9609 12.3678 16.6519 12.0438C16.343 11.7197 15.9586 11.5577 15.499 11.5577C15.2868 11.5577 15.0951 11.5897 14.9237 11.6536C14.7523 11.7176 14.5854 11.8318 14.4231 11.9962L12 14.4193L9.59614 12.0154C9.48538 11.901 9.3423 11.7961 9.16692 11.7008C8.99154 11.6054 8.77064 11.5577 8.50422 11.5577C8.04242 11.5577 7.65704 11.7189 7.34807 12.0414C7.03909 12.3638 6.88459 12.74 6.88459 13.1699C6.88459 13.3849 6.92466 13.5895 7.00479 13.7837C7.08493 13.9779 7.20128 14.1565 7.35384 14.3193L12 18.9962Z" fill="white"/>
</svg>
