<svg width="40" height="40" viewBox="0 0 40 40" fill="none" xmlns="http://www.w3.org/2000/svg">
<path d="M2.17957 20V12.1796H4.16669V16.6155L9.36544 11.4167L10.7628 12.8141L5.56411 18.0129H10V20H2.17957ZM12.8141 10.7628L11.4167 9.36544L16.6155 4.16669H12.1796V2.17957H20V10H18.0129V5.56411L12.8141 10.7628ZM24.0673 37.3076C23.454 37.3076 22.8712 37.1933 22.3189 36.9647C21.7666 36.7361 21.2703 36.4016 20.8301 35.9615L12.4744 27.5961L13.5 26.5609C13.8483 26.2233 14.2516 25.9995 14.7099 25.8894C15.1682 25.7794 15.625 25.7863 16.0801 25.9103L19.7757 26.8782V13.141C19.7757 12.7869 19.8955 12.49 20.1352 12.2504C20.3749 12.0109 20.6719 11.8911 21.0262 11.8911C21.3805 11.8911 21.6773 12.0109 21.9166 12.2504C22.1559 12.49 22.2756 12.7869 22.2756 13.141V30.2051L17.2242 28.8237L22.6121 34.1955C22.7938 34.3771 23.0131 34.5246 23.2702 34.6378C23.5273 34.7511 23.793 34.8077 24.0673 34.8077H30.6089C31.6538 34.8077 32.54 34.4439 33.2676 33.7164C33.9952 32.9888 34.3589 32.1026 34.3589 31.0577V24.391C34.3589 24.0369 34.4788 23.74 34.7185 23.5004C34.9582 23.2608 35.2552 23.141 35.6095 23.141C35.9638 23.141 36.2606 23.2608 36.4999 23.5004C36.7392 23.74 36.8589 24.0369 36.8589 24.391V31.0577C36.8589 32.7842 36.2489 34.2574 35.0288 35.4775C33.8087 36.6976 32.3365 37.3076 30.6121 37.3076H24.0673ZM24.6314 26.0577V19.391C24.6314 19.0363 24.7512 18.7393 24.9909 18.5C25.2306 18.2607 25.5276 18.141 25.8819 18.141C26.2362 18.141 26.5331 18.2608 26.7724 18.5004C27.0117 18.74 27.1314 19.0369 27.1314 19.391V26.0577H24.6314ZM29.5032 26.0577V21.0577C29.5032 20.703 29.623 20.406 29.8627 20.1666C30.1024 19.9273 30.3994 19.8077 30.7537 19.8077C31.108 19.8077 31.4048 19.9275 31.6441 20.1671C31.8835 20.4066 32.0031 20.7035 32.0031 21.0577V26.0577H29.5032Z" fill="white"/>
</svg>
