<svg width="40" height="40" viewBox="0 0 40 40" fill="none" xmlns="http://www.w3.org/2000/svg">
<path d="M20 34.1666C19.1715 34.1666 18.4622 33.8716 17.8722 33.2816C17.2822 32.6916 16.9872 31.9823 16.9872 31.1538V7.60577C16.9872 7.01391 17.1491 6.47118 17.4728 5.9776C17.7965 5.48402 18.2318 5.11436 18.7789 4.86864L23.5064 2.7981C24.5214 2.35793 25.4781 2.4402 26.3766 3.04489C27.2751 3.64961 27.7243 4.49363 27.7243 5.57693V5.83335H32.8205C33.649 5.83335 34.3582 6.12836 34.9482 6.71839C35.5383 7.30839 35.8333 8.01766 35.8333 8.84618V31.1538C35.8333 31.9823 35.5383 32.6916 34.9482 33.2816C34.3582 33.8716 33.649 34.1666 32.8205 34.1666H20ZM19.4871 30.1827L24.9199 27.7916C25.0053 27.7489 25.0775 27.6848 25.1362 27.5993C25.195 27.5138 25.2244 27.4177 25.2244 27.3109V5.57693C25.2244 5.39529 25.1469 5.25372 24.992 5.15222C24.8371 5.05072 24.6741 5.03738 24.5032 5.11218L19.7917 7.16664C19.7062 7.20939 19.634 7.2735 19.5753 7.35898C19.5165 7.44445 19.4871 7.5406 19.4871 7.64743V30.1827ZM22.5191 31.5865C22.5404 31.6079 22.5698 31.6266 22.6072 31.6426C22.6446 31.6586 22.69 31.6666 22.7435 31.6666H32.8205C32.97 31.6666 33.0929 31.6186 33.1891 31.5224C33.2852 31.4262 33.3333 31.3034 33.3333 31.1538V8.84618C33.3333 8.6966 33.2852 8.57372 33.1891 8.47756C33.0929 8.38139 32.97 8.33331 32.8205 8.33331H27.7243V27.3109C27.7243 27.9348 27.5571 28.4994 27.2227 29.0047C26.8883 29.5101 26.469 29.8664 25.9647 30.0736L22.5191 31.5865ZM4.1667 8.52564V5.83335H6.85899V8.52564H4.1667ZM4.1667 34.1666V31.4743H6.85899V34.1666H4.1667ZM4.1667 27.7564V25.0641H6.85899V27.7564H4.1667ZM4.1667 21.3461V18.6539H6.85899V21.3461H4.1667ZM4.1667 14.9359V12.2436H6.85899V14.9359H4.1667ZM10.577 8.52564V5.83335H13.2692V8.52564H10.577ZM10.577 34.1666V31.4743H13.2692V34.1666H10.577Z" fill="#1A3C3B"/>
</svg>
