<svg width="40" height="40" viewBox="0 0 40 40" fill="none" xmlns="http://www.w3.org/2000/svg">
<path d="M21.8335 37.4999C19.6167 37.4999 17.5385 37.0795 15.5988 36.2387C13.6591 35.3979 11.967 34.2553 10.5226 32.8109C9.07816 31.3665 7.93555 29.6744 7.09475 27.7347C6.25391 25.795 5.8335 23.7168 5.8335 21.5C5.8335 17.8505 6.9462 14.6 9.17162 11.7485C11.397 8.89701 14.2746 7.02683 17.8045 6.13794C17.4969 8.81313 17.7725 11.4071 18.6315 13.9199C19.4905 16.4328 20.874 18.6432 22.7821 20.5514C24.6902 22.4595 26.9007 23.843 29.4135 24.702C31.9263 25.561 34.5203 25.8366 37.1955 25.5289C36.3237 29.0588 34.4578 31.9365 31.5978 34.1619C28.7378 36.3873 25.483 37.5 21.8335 37.5V37.4999ZM21.8335 35C24.2779 35 26.5418 34.3889 28.6251 33.1667C30.7085 31.9445 32.3473 30.2624 33.5418 28.1206C31.1529 27.898 28.889 27.293 26.7501 26.3056C24.6112 25.3181 22.6946 23.976 21.0001 22.2792C19.3057 20.5824 17.9585 18.6672 16.9585 16.5337C15.9585 14.4001 15.3612 12.1389 15.1668 9.75002C13.0279 10.9445 11.3543 12.5903 10.146 14.6875C8.93762 16.7847 8.33345 19.0556 8.33345 21.5C8.33345 25.25 9.64595 28.4375 12.271 31.0625C14.896 33.6875 18.0835 35 21.8335 35Z" fill="white"/>
</svg>
