<svg width="22" height="22" viewBox="0 0 22 22" fill="none" xmlns="http://www.w3.org/2000/svg">
<path d="M10.5558 14.6041C12.0073 13.4312 13.1032 12.3024 13.8436 11.2174C14.5839 10.1325 14.9541 9.1136 14.9541 8.16063C14.9541 7.33962 14.8039 6.63956 14.5033 6.06046C14.2028 5.48135 13.8326 5.0122 13.3927 4.65301C12.9529 4.29381 12.4764 4.03358 11.9633 3.87231C11.4502 3.71104 10.981 3.63041 10.5558 3.63041C10.1307 3.63041 9.66153 3.71104 9.1484 3.87231C8.63526 4.03358 8.15878 4.29381 7.71896 4.65301C7.27913 5.0122 6.90894 5.48135 6.60839 6.06046C6.30784 6.63956 6.15757 7.33962 6.15757 8.16063C6.15757 9.1136 6.52776 10.1325 7.26813 11.2174C8.00851 12.3024 9.10441 13.4312 10.5558 14.6041ZM10.5558 16.8252C8.48866 15.3005 6.94559 13.8198 5.92666 12.383C4.90772 10.9462 4.39825 9.53876 4.39825 8.16063C4.39825 7.11971 4.58518 6.20707 4.95904 5.42271C5.33289 4.63835 5.81303 3.98227 6.39947 3.45447C6.98591 2.92668 7.64565 2.53084 8.3787 2.26694C9.11175 2.00304 9.83746 1.87109 10.5558 1.87109C11.2742 1.87109 11.9999 2.00304 12.733 2.26694C13.466 2.53084 14.1258 2.92668 14.7122 3.45447C15.2987 3.98227 15.7788 4.63835 16.1527 5.42271C16.5265 6.20707 16.7134 7.11971 16.7134 8.16063C16.7134 9.53876 16.204 10.9462 15.185 12.383C14.1661 13.8198 12.623 15.3005 10.5558 16.8252ZM10.5558 9.788C11.0397 9.788 11.4538 9.61573 11.7984 9.2712C12.1429 8.92667 12.3152 8.5125 12.3152 8.02869C12.3152 7.54488 12.1429 7.1307 11.7984 6.78617C11.4538 6.44164 11.0397 6.26937 10.5558 6.26937C10.072 6.26937 9.65787 6.44164 9.31333 6.78617C8.9688 7.1307 8.79654 7.54488 8.79654 8.02869C8.79654 8.5125 8.9688 8.92667 9.31333 9.2712C9.65787 9.61573 10.072 9.788 10.5558 9.788ZM4.39825 19.4642V17.7049H16.7134V19.4642H4.39825Z" fill="white"/>
</svg>
