<svg width="23" height="22" viewBox="0 0 23 22" fill="none" xmlns="http://www.w3.org/2000/svg">
<path d="M4.50153 17.5931C4.01772 17.5931 3.60355 17.4208 3.25902 17.0763C2.91448 16.7317 2.74222 16.3176 2.74222 15.8337V5.27787C2.74222 4.79406 2.91448 4.37988 3.25902 4.03535C3.60355 3.69082 4.01772 3.51855 4.50153 3.51855H18.576C19.0598 3.51855 19.474 3.69082 19.8185 4.03535C20.1631 4.37988 20.3353 4.79406 20.3353 5.27787V15.8337C20.3353 16.3176 20.1631 16.7317 19.8185 17.0763C19.474 17.4208 19.0598 17.5931 18.576 17.5931H4.50153ZM11.5388 11.4355L4.50153 7.03718V15.8337H18.576V7.03718L11.5388 11.4355ZM11.5388 9.67615L18.576 5.27787H4.50153L11.5388 9.67615ZM4.50153 7.03718V5.27787V15.8337V7.03718Z" fill="white"/>
</svg>
