<svg width="40" height="40" viewBox="0 0 40 40" fill="none" xmlns="http://www.w3.org/2000/svg">
<path d="M5.00002 24.1667C4.7778 24.1667 4.58335 24.0834 4.41669 23.9167C4.25002 23.75 4.16669 23.5556 4.16669 23.3334C4.16669 23.1111 4.25002 22.9167 4.41669 22.75C4.58335 22.5834 4.7778 22.5 5.00002 22.5C5.22224 22.5 5.41669 22.5834 5.58335 22.75C5.75002 22.9167 5.83335 23.1111 5.83335 23.3334C5.83335 23.5556 5.75002 23.75 5.58335 23.9167C5.41669 24.0834 5.22224 24.1667 5.00002 24.1667ZM5.00002 17.5C4.7778 17.5 4.58335 17.4167 4.41669 17.25C4.25002 17.0834 4.16669 16.8889 4.16669 16.6667C4.16669 16.4445 4.25002 16.25 4.41669 16.0834C4.58335 15.9167 4.7778 15.8334 5.00002 15.8334C5.22224 15.8334 5.41669 15.9167 5.58335 16.0834C5.75002 16.25 5.83335 16.4445 5.83335 16.6667C5.83335 16.8889 5.75002 17.0834 5.58335 17.25C5.41669 17.4167 5.22224 17.5 5.00002 17.5ZM10 31.5385C9.56413 31.5385 9.19874 31.391 8.90385 31.0962C8.60899 30.8013 8.46156 30.4359 8.46156 30C8.46156 29.5641 8.60899 29.1987 8.90385 28.9039C9.19874 28.609 9.56413 28.4616 10 28.4616C10.4359 28.4616 10.8013 28.609 11.0962 28.9039C11.391 29.1987 11.5385 29.5641 11.5385 30C11.5385 30.4359 11.391 30.8013 11.0962 31.0962C10.8013 31.391 10.4359 31.5385 10 31.5385ZM10 24.8718C9.56413 24.8718 9.19874 24.7244 8.90385 24.4295C8.60899 24.1346 8.46156 23.7692 8.46156 23.3334C8.46156 22.8975 8.60899 22.5321 8.90385 22.2372C9.19874 21.9423 9.56413 21.7949 10 21.7949C10.4359 21.7949 10.8013 21.9423 11.0962 22.2372C11.391 22.5321 11.5385 22.8975 11.5385 23.3334C11.5385 23.7692 11.391 24.1346 11.0962 24.4295C10.8013 24.7244 10.4359 24.8718 10 24.8718ZM10 18.2051C9.56413 18.2051 9.19874 18.0577 8.90385 17.7628C8.60899 17.468 8.46156 17.1026 8.46156 16.6667C8.46156 16.2308 8.60899 15.8654 8.90385 15.5706C9.19874 15.2757 9.56413 15.1282 10 15.1282C10.4359 15.1282 10.8013 15.2757 11.0962 15.5706C11.391 15.8654 11.5385 16.2308 11.5385 16.6667C11.5385 17.1026 11.391 17.468 11.0962 17.7628C10.8013 18.0577 10.4359 18.2051 10 18.2051ZM10 11.5385C9.56413 11.5385 9.19874 11.391 8.90385 11.0961C8.60899 10.8013 8.46156 10.4359 8.46156 10C8.46156 9.56413 8.60899 9.19876 8.90385 8.90389C9.19874 8.60901 9.56413 8.46156 10 8.46156C10.4359 8.46156 10.8013 8.60901 11.0962 8.90389C11.391 9.19876 11.5385 9.56413 11.5385 10C11.5385 10.4359 11.391 10.8013 11.0962 11.0961C10.8013 11.391 10.4359 11.5385 10 11.5385ZM16.6705 25.5769C16.0483 25.5769 15.5182 25.3592 15.0801 24.9236C14.6421 24.4881 14.4231 23.9593 14.4231 23.3371C14.4231 22.715 14.6409 22.1849 15.0764 21.7468C15.5119 21.3088 16.0408 21.0898 16.6629 21.0898C17.2851 21.0898 17.8152 21.3075 18.2532 21.7431C18.6913 22.1786 18.9103 22.7074 18.9103 23.3296C18.9103 23.9517 18.6925 24.4818 18.257 24.9199C17.8215 25.3579 17.2926 25.5769 16.6705 25.5769ZM16.6705 18.9103C16.0483 18.9103 15.5182 18.6925 15.0801 18.257C14.6421 17.8215 14.4231 17.2926 14.4231 16.6705C14.4231 16.0483 14.6409 15.5182 15.0764 15.0801C15.5119 14.6421 16.0408 14.4231 16.6629 14.4231C17.2851 14.4231 17.8152 14.6409 18.2532 15.0764C18.6913 15.5119 18.9103 16.0407 18.9103 16.6629C18.9103 17.2851 18.6925 17.8152 18.257 18.2532C17.8215 18.6913 17.2926 18.9103 16.6705 18.9103ZM16.6667 31.5385C16.2308 31.5385 15.8654 31.391 15.5705 31.0962C15.2757 30.8013 15.1282 30.4359 15.1282 30C15.1282 29.5641 15.2757 29.1987 15.5705 28.9039C15.8654 28.609 16.2308 28.4616 16.6667 28.4616C17.1026 28.4616 17.468 28.609 17.7629 28.9039C18.0577 29.1987 18.2051 29.5641 18.2051 30C18.2051 30.4359 18.0577 30.8013 17.7629 31.0962C17.468 31.391 17.1026 31.5385 16.6667 31.5385ZM16.6667 11.5385C16.2308 11.5385 15.8654 11.391 15.5705 11.0961C15.2757 10.8013 15.1282 10.4359 15.1282 10C15.1282 9.56413 15.2757 9.19876 15.5705 8.90389C15.8654 8.60901 16.2308 8.46156 16.6667 8.46156C17.1026 8.46156 17.468 8.60901 17.7629 8.90389C18.0577 9.19876 18.2051 9.56413 18.2051 10C18.2051 10.4359 18.0577 10.8013 17.7629 11.0961C17.468 11.391 17.1026 11.5385 16.6667 11.5385ZM16.6667 35.8334C16.4445 35.8334 16.25 35.75 16.0834 35.5834C15.9167 35.4167 15.8334 35.2222 15.8334 35C15.8334 34.7778 15.9167 34.5834 16.0834 34.4167C16.25 34.25 16.4445 34.1667 16.6667 34.1667C16.8889 34.1667 17.0834 34.25 17.25 34.4167C17.4167 34.5834 17.5 34.7778 17.5 35C17.5 35.2222 17.4167 35.4167 17.25 35.5834C17.0834 35.75 16.8889 35.8334 16.6667 35.8334ZM16.6667 5.83335C16.4445 5.83335 16.25 5.75002 16.0834 5.58335C15.9167 5.41669 15.8334 5.22224 15.8334 5.00002C15.8334 4.7778 15.9167 4.58335 16.0834 4.41669C16.25 4.25002 16.4445 4.16669 16.6667 4.16669C16.8889 4.16669 17.0834 4.25002 17.25 4.41669C17.4167 4.58335 17.5 4.7778 17.5 5.00002C17.5 5.22224 17.4167 5.41669 17.25 5.58335C17.0834 5.75002 16.8889 5.83335 16.6667 5.83335ZM23.3371 25.5769C22.715 25.5769 22.1849 25.3592 21.7468 24.9236C21.3088 24.4881 21.0898 23.9593 21.0898 23.3371C21.0898 22.715 21.3075 22.1849 21.7431 21.7468C22.1786 21.3088 22.7074 21.0898 23.3296 21.0898C23.9517 21.0898 24.4818 21.3075 24.9199 21.7431C25.3579 22.1786 25.5769 22.7074 25.5769 23.3296C25.5769 23.9517 25.3592 24.4818 24.9236 24.9199C24.4881 25.3579 23.9593 25.5769 23.3371 25.5769ZM23.3371 18.9103C22.715 18.9103 22.1849 18.6925 21.7468 18.257C21.3088 17.8215 21.0898 17.2926 21.0898 16.6705C21.0898 16.0483 21.3075 15.5182 21.7431 15.0801C22.1786 14.6421 22.7074 14.4231 23.3296 14.4231C23.9517 14.4231 24.4818 14.6409 24.9199 15.0764C25.3579 15.5119 25.5769 16.0407 25.5769 16.6629C25.5769 17.2851 25.3592 17.8152 24.9236 18.2532C24.4881 18.6913 23.9593 18.9103 23.3371 18.9103ZM23.3334 31.5385C22.8975 31.5385 22.5321 31.391 22.2372 31.0962C21.9423 30.8013 21.7949 30.4359 21.7949 30C21.7949 29.5641 21.9423 29.1987 22.2372 28.9039C22.5321 28.609 22.8975 28.4616 23.3334 28.4616C23.7692 28.4616 24.1346 28.609 24.4295 28.9039C24.7244 29.1987 24.8718 29.5641 24.8718 30C24.8718 30.4359 24.7244 30.8013 24.4295 31.0962C24.1346 31.391 23.7692 31.5385 23.3334 31.5385ZM23.3334 11.5385C22.8975 11.5385 22.5321 11.391 22.2372 11.0961C21.9423 10.8013 21.7949 10.4359 21.7949 10C21.7949 9.56413 21.9423 9.19876 22.2372 8.90389C22.5321 8.60901 22.8975 8.46156 23.3334 8.46156C23.7692 8.46156 24.1346 8.60901 24.4295 8.90389C24.7244 9.19876 24.8718 9.56413 24.8718 10C24.8718 10.4359 24.7244 10.8013 24.4295 11.0961C24.1346 11.391 23.7692 11.5385 23.3334 11.5385ZM23.3334 35.8334C23.1111 35.8334 22.9167 35.75 22.75 35.5834C22.5834 35.4167 22.5 35.2222 22.5 35C22.5 34.7778 22.5834 34.5834 22.75 34.4167C22.9167 34.25 23.1111 34.1667 23.3334 34.1667C23.5556 34.1667 23.75 34.25 23.9167 34.4167C24.0834 34.5834 24.1667 34.7778 24.1667 35C24.1667 35.2222 24.0834 35.4167 23.9167 35.5834C23.75 35.75 23.5556 35.8334 23.3334 35.8334ZM23.3334 5.83335C23.1111 5.83335 22.9167 5.75002 22.75 5.58335C22.5834 5.41669 22.5 5.22224 22.5 5.00002C22.5 4.7778 22.5834 4.58335 22.75 4.41669C22.9167 4.25002 23.1111 4.16669 23.3334 4.16669C23.5556 4.16669 23.75 4.25002 23.9167 4.41669C24.0834 4.58335 24.1667 4.7778 24.1667 5.00002C24.1667 5.22224 24.0834 5.41669 23.9167 5.58335C23.75 5.75002 23.5556 5.83335 23.3334 5.83335ZM30 31.5385C29.5641 31.5385 29.1988 31.391 28.9039 31.0962C28.609 30.8013 28.4616 30.4359 28.4616 30C28.4616 29.5641 28.609 29.1987 28.9039 28.9039C29.1988 28.609 29.5641 28.4616 30 28.4616C30.4359 28.4616 30.8013 28.609 31.0961 28.9039C31.391 29.1987 31.5385 29.5641 31.5385 30C31.5385 30.4359 31.391 30.8013 31.0961 31.0962C30.8013 31.391 30.4359 31.5385 30 31.5385ZM30 24.8718C29.5641 24.8718 29.1988 24.7244 28.9039 24.4295C28.609 24.1346 28.4616 23.7692 28.4616 23.3334C28.4616 22.8975 28.609 22.5321 28.9039 22.2372C29.1988 21.9423 29.5641 21.7949 30 21.7949C30.4359 21.7949 30.8013 21.9423 31.0961 22.2372C31.391 22.5321 31.5385 22.8975 31.5385 23.3334C31.5385 23.7692 31.391 24.1346 31.0961 24.4295C30.8013 24.7244 30.4359 24.8718 30 24.8718ZM30 18.2051C29.5641 18.2051 29.1988 18.0577 28.9039 17.7628C28.609 17.468 28.4616 17.1026 28.4616 16.6667C28.4616 16.2308 28.609 15.8654 28.9039 15.5706C29.1988 15.2757 29.5641 15.1282 30 15.1282C30.4359 15.1282 30.8013 15.2757 31.0961 15.5706C31.391 15.8654 31.5385 16.2308 31.5385 16.6667C31.5385 17.1026 31.391 17.468 31.0961 17.7628C30.8013 18.0577 30.4359 18.2051 30 18.2051ZM30 11.5385C29.5641 11.5385 29.1988 11.391 28.9039 11.0961C28.609 10.8013 28.4616 10.4359 28.4616 10C28.4616 9.56413 28.609 9.19876 28.9039 8.90389C29.1988 8.60901 29.5641 8.46156 30 8.46156C30.4359 8.46156 30.8013 8.60901 31.0961 8.90389C31.391 9.19876 31.5385 9.56413 31.5385 10C31.5385 10.4359 31.391 10.8013 31.0961 11.0961C30.8013 11.391 30.4359 11.5385 30 11.5385ZM35 24.1667C34.7778 24.1667 34.5834 24.0834 34.4167 23.9167C34.25 23.75 34.1667 23.5556 34.1667 23.3334C34.1667 23.1111 34.25 22.9167 34.4167 22.75C34.5834 22.5834 34.7778 22.5 35 22.5C35.2222 22.5 35.4167 22.5834 35.5834 22.75C35.75 22.9167 35.8334 23.1111 35.8334 23.3334C35.8334 23.5556 35.75 23.75 35.5834 23.9167C35.4167 24.0834 35.2222 24.1667 35 24.1667ZM35 17.5C34.7778 17.5 34.5834 17.4167 34.4167 17.25C34.25 17.0834 34.1667 16.8889 34.1667 16.6667C34.1667 16.4445 34.25 16.25 34.4167 16.0834C34.5834 15.9167 34.7778 15.8334 35 15.8334C35.2222 15.8334 35.4167 15.9167 35.5834 16.0834C35.75 16.25 35.8334 16.4445 35.8334 16.6667C35.8334 16.8889 35.75 17.0834 35.5834 17.25C35.4167 17.4167 35.2222 17.5 35 17.5Z" fill="white"/>
</svg>
