<svg width="40" height="40" viewBox="0 0 40 40" fill="none" xmlns="http://www.w3.org/2000/svg">
<path d="M9.73982 32.596C8.43893 32.596 7.33443 32.1411 6.42632 31.2312C5.51821 30.3213 5.06415 29.2164 5.06415 27.9166H2.24365V10.5128C2.24365 9.67095 2.53532 8.95833 3.11865 8.375C3.70199 7.79167 4.41458 7.5 5.25644 7.5H27.9487V13.8462H32.3717L37.7564 21.0577V27.9166H34.7436C34.7436 29.2164 34.2883 30.3213 33.3777 31.2312C32.467 32.1411 31.3613 32.596 30.0604 32.596C28.7595 32.596 27.655 32.1411 26.7469 31.2312C25.8387 30.3213 25.3847 29.2164 25.3847 27.9166H14.4231C14.4231 29.22 13.9678 30.3258 13.0571 31.2339C12.1465 32.142 11.0407 32.596 9.73982 32.596ZM9.74361 30.0961C10.3547 30.0961 10.8707 29.8857 11.2917 29.4647C11.7126 29.0438 11.9231 28.5277 11.9231 27.9166C11.9231 27.3055 11.7126 26.7894 11.2917 26.3685C10.8707 25.9476 10.3547 25.7371 9.74361 25.7371C9.13247 25.7371 8.61643 25.9476 8.19549 26.3685C7.77454 26.7894 7.56407 27.3055 7.56407 27.9166C7.56407 28.5277 7.77454 29.0438 8.19549 29.4647C8.61643 29.8857 9.13247 30.0961 9.74361 30.0961ZM4.74361 25.4167H5.94874C6.3034 24.7991 6.81568 24.2815 7.48557 23.8638C8.15546 23.446 8.90814 23.2371 9.74361 23.2371C10.5577 23.2371 11.3051 23.4433 11.9856 23.8558C12.6662 24.2681 13.1838 24.7884 13.5385 25.4167H25.4488V9.99996H5.25644C5.12825 9.99996 5.01072 10.0534 4.90386 10.1602C4.79703 10.2671 4.74361 10.3846 4.74361 10.5128V25.4167ZM30.0642 30.0961C30.6753 30.0961 31.1913 29.8857 31.6122 29.4647C32.0332 29.0438 32.2437 28.5277 32.2437 27.9166C32.2437 27.3055 32.0332 26.7894 31.6122 26.3685C31.1913 25.9476 30.6753 25.7371 30.0642 25.7371C29.453 25.7371 28.937 25.9476 28.516 26.3685C28.0951 26.7894 27.8846 27.3055 27.8846 27.9166C27.8846 28.5277 28.0951 29.0438 28.516 29.4647C28.937 29.8857 29.453 30.0961 30.0642 30.0961ZM27.9487 22.0833H35.4167L31.0897 16.3461H27.9487V22.0833Z" fill="#1A3C3B"/>
</svg>
