<svg width="40" height="40" viewBox="0 0 40 40" fill="none" xmlns="http://www.w3.org/2000/svg">
<path d="M18.75 36.25V28.7564L12.9167 34.5064L11.1603 32.75L18.75 25.1603V21.25H14.8398L7.25 28.8397L5.49363 27.0834L11.2437 21.25H3.75005V18.7501H11.2437L5.49363 12.9167L7.25 11.1603L14.8398 18.7501H18.75V14.8398L11.1603 7.25002L12.9167 5.49364L18.75 11.2437V3.75006H21.25V11.2437L27.0833 5.49364L28.8397 7.25002L21.25 14.8398V18.7501H25.1603L32.75 11.1603L34.5064 12.9167L28.7563 18.7501H36.25V21.25H28.7563L34.5064 27.0834L32.75 28.8397L25.1603 21.25H21.25V25.1603L28.8397 32.75L27.0833 34.5064L21.25 28.7564V36.25L18.75 36.25Z" fill="#1A3C3B"/>
</svg>
