<svg width="22" height="22" viewBox="0 0 22 22" fill="none" xmlns="http://www.w3.org/2000/svg">
<path d="M17.5491 18.4725C15.7165 18.4725 13.9059 18.073 12.1173 17.274C10.3286 16.4749 8.70127 15.3424 7.23518 13.8763C5.76909 12.4102 4.63653 10.7828 3.83751 8.99419C3.03849 7.20555 2.63898 5.39493 2.63898 3.56231C2.63898 3.29841 2.72694 3.0785 2.90287 2.90257C3.07881 2.72664 3.29872 2.63867 3.56262 2.63867H7.12522C7.33048 2.63867 7.51374 2.70831 7.67501 2.84759C7.83628 2.98687 7.93157 3.1518 7.9609 3.3424L8.53267 6.42119C8.562 6.65577 8.55466 6.85369 8.51068 7.01496C8.4667 7.17623 8.38606 7.31551 8.26878 7.4328L6.13561 9.58796C6.42883 10.1304 6.77703 10.6545 7.1802 11.1603C7.58338 11.6661 8.02687 12.1536 8.51068 12.6228C8.96517 13.0773 9.44165 13.4988 9.94012 13.8873C10.4386 14.2758 10.9664 14.6313 11.5235 14.9539L13.5907 12.8867C13.7226 12.7547 13.8949 12.6558 14.1075 12.5898C14.3201 12.5238 14.529 12.5055 14.7342 12.5348L17.7691 13.1506C17.9743 13.2092 18.1429 13.3155 18.2749 13.4694C18.4068 13.6234 18.4728 13.7956 18.4728 13.9862V17.5488C18.4728 17.8127 18.3848 18.0327 18.2089 18.2086C18.033 18.3845 17.813 18.4725 17.5491 18.4725ZM5.29994 7.91661L6.75137 6.46518L6.37752 4.39798H4.42028C4.49359 4.99908 4.59621 5.59285 4.72816 6.17929C4.86011 6.76573 5.0507 7.34483 5.29994 7.91661ZM13.1729 15.7895C13.7446 16.0388 14.3274 16.2367 14.9212 16.3833C15.5149 16.5299 16.1124 16.6252 16.7135 16.6692V14.7339L14.6463 14.3161L13.1729 15.7895Z" fill="white"/>
</svg>
