<svg width="40" height="40" viewBox="0 0 40 40" fill="none" xmlns="http://www.w3.org/2000/svg">
<path d="M8.84621 35.8332C8.00432 35.8332 7.29171 35.5416 6.70837 34.9582C6.12504 34.3749 5.83337 33.6623 5.83337 32.8204V10.5128C5.83337 9.67094 6.12504 8.95832 6.70837 8.37499C7.29171 7.79166 8.00432 7.49999 8.84621 7.49999H11.1539V3.97437H13.718V7.49999H26.3461V3.97437H28.8461V7.49999H31.1538C31.9957 7.49999 32.7083 7.79166 33.2916 8.37499C33.875 8.95832 34.1666 9.67094 34.1666 10.5128V20.2564H31.6667V17.1795H8.33333V32.8204C8.33333 32.9486 8.38675 33.0662 8.49358 33.173C8.60044 33.2799 8.71799 33.3333 8.84621 33.3333H20.2404V35.8332H8.84621ZM31.6667 39.7435C29.7671 39.7435 28.0951 39.1597 26.6507 37.9919C25.2062 36.8242 24.2682 35.3568 23.8366 33.5897H25.907C26.3109 34.8226 27.0304 35.8253 28.0657 36.5977C29.101 37.3702 30.3013 37.7564 31.6667 37.7564C33.3526 37.7564 34.789 37.1629 35.976 35.9759C37.1629 34.7889 37.7564 33.3525 37.7564 31.6666C37.7564 29.9807 37.1629 28.5443 35.976 27.3573C34.789 26.1704 33.3526 25.5769 31.6667 25.5769C30.7543 25.5769 29.8921 25.7734 29.0801 26.1666C28.2681 26.5598 27.5609 27.0897 26.9583 27.7564H29.7436V29.7435H23.5898V23.5897H25.5769V26.3173C26.3483 25.4989 27.2607 24.8397 28.3141 24.3397C29.3675 23.8397 30.485 23.5897 31.6667 23.5897C33.8974 23.5897 35.8013 24.3782 37.3782 25.9551C38.9551 27.532 39.7436 29.4359 39.7436 31.6666C39.7436 33.8974 38.9551 35.8012 37.3782 37.3782C35.8013 38.9551 33.8974 39.7435 31.6667 39.7435ZM8.33333 14.6795H31.6667V10.5128C31.6667 10.3846 31.6133 10.2671 31.5064 10.1602C31.3996 10.0534 31.282 9.99995 31.1538 9.99995H8.84621C8.71799 9.99995 8.60044 10.0534 8.49358 10.1602C8.38675 10.2671 8.33333 10.3846 8.33333 10.5128V14.6795Z" fill="#1A3C3B"/>
</svg>
