<svg width="40" height="40" viewBox="0 0 40 40" fill="none" xmlns="http://www.w3.org/2000/svg">
<path d="M23.75 27.9166H31.2499V20.4167H28.75V25.4167H23.75V27.9166ZM8.75002 19.5833H11.2499V14.5833H16.2499V12.0834H8.75002V19.5833ZM7.17952 32.5C6.33763 32.5 5.62502 32.2083 5.04169 31.625C4.45835 31.0416 4.16669 30.329 4.16669 29.4871V10.5129C4.16669 9.67101 4.45835 8.95839 5.04169 8.37506C5.62502 7.79173 6.33763 7.50006 7.17952 7.50006H32.8204C33.6623 7.50006 34.3749 7.79173 34.9583 8.37506C35.5416 8.95839 35.8333 9.67101 35.8333 10.5129V29.4871C35.8333 30.329 35.5416 31.0416 34.9583 31.625C34.3749 32.2083 33.6623 32.5 32.8204 32.5H7.17952ZM7.17952 30H32.8204C32.9487 30 33.0662 29.9466 33.1731 29.8398C33.2799 29.7329 33.3333 29.6154 33.3333 29.4871V10.5129C33.3333 10.3847 33.2799 10.2671 33.1731 10.1603C33.0662 10.0534 32.9487 10 32.8204 10H7.17952C7.0513 10 6.93376 10.0534 6.8269 10.1603C6.72006 10.2671 6.66665 10.3847 6.66665 10.5129V29.4871C6.66665 29.6154 6.72006 29.7329 6.8269 29.8398C6.93376 29.9466 7.0513 30 7.17952 30Z" fill="white"/>
</svg>
