<svg width="40" height="40" viewBox="0 0 40 40" fill="none" xmlns="http://www.w3.org/2000/svg">
<path d="M13.125 11.2436L17.6314 5.33015C17.9305 4.92984 18.2858 4.63586 18.6971 4.44819C19.1085 4.26052 19.5427 4.16669 20 4.16669C20.4572 4.16669 20.8915 4.26052 21.3029 4.44819C21.7142 4.63586 22.0694 4.92984 22.3686 5.33015L26.875 11.2436L33.766 13.5705C34.4241 13.7821 34.9375 14.1553 35.306 14.6901C35.6746 15.2249 35.8589 15.8157 35.8589 16.4625C35.8589 16.761 35.8153 17.0586 35.728 17.3553C35.6408 17.652 35.4974 17.9363 35.298 18.2083L30.8108 24.4359L30.9775 31.0448C31.0053 31.9224 30.716 32.6621 30.1097 33.2639C29.5035 33.8657 28.797 34.1666 27.9904 34.1666C27.9668 34.1666 27.688 34.1303 27.1538 34.0576L20 32.0063L12.8462 34.0576C12.7073 34.1132 12.5639 34.1452 12.4161 34.1538C12.2683 34.1623 12.1328 34.1666 12.0096 34.1666C11.1955 34.1666 10.4872 33.8657 9.88466 33.2639C9.2821 32.6621 8.99472 31.9224 9.02249 31.0448L9.18916 24.3942L4.72762 18.2083C4.52817 17.9353 4.38483 17.6498 4.29758 17.3519C4.21033 17.0541 4.1667 16.7562 4.1667 16.4583C4.1667 15.8298 4.34979 15.2453 4.71595 14.7047C5.08212 14.1642 5.59348 13.7808 6.25004 13.5545L13.125 11.2436ZM14.6699 13.3974L7.05129 15.9359C6.89104 15.9893 6.78152 16.0988 6.72274 16.2644C6.66399 16.43 6.68804 16.5823 6.79487 16.7212L11.7051 23.6506L11.5224 31.0961C11.5117 31.2777 11.5759 31.422 11.7147 31.5288C11.8536 31.6357 12.0086 31.6624 12.1795 31.6089L20 29.4134L27.8205 31.6506C27.9914 31.7041 28.1464 31.6773 28.2852 31.5705C28.4241 31.4636 28.4882 31.3194 28.4776 31.1378L28.2949 23.6506L33.2051 16.8045C33.312 16.6656 33.336 16.5133 33.2772 16.3477C33.2185 16.1821 33.109 16.0726 32.9487 16.0192L25.3301 13.3974L20.4007 6.89102C20.3045 6.75213 20.1709 6.68269 20 6.68269C19.829 6.68269 19.6955 6.75213 19.5993 6.89102L14.6699 13.3974Z" fill="#1A3C3B"/>
</svg>
