<svg width="40" height="40" viewBox="0 0 40 40" fill="none" xmlns="http://www.w3.org/2000/svg">
<path d="M10.1602 20H13.1731V16.9872H10.1602V20ZM16.6667 20H19.6795V16.9872H16.6667V20ZM23.1731 26.5064H26.1859V23.4936H23.1731V26.5064ZM23.1731 20H26.1859V16.9872H23.1731V20ZM7.17954 32.5C6.33765 32.5 5.62504 32.2083 5.0417 31.625C4.45837 31.0416 4.1667 30.329 4.1667 29.4871V10.5129C4.1667 9.67098 4.45837 8.95836 5.0417 8.37503C5.62504 7.7917 6.33765 7.50003 7.17954 7.50003H32.8205C33.6623 7.50003 34.375 7.7917 34.9583 8.37503C35.5416 8.95836 35.8333 9.67098 35.8333 10.5129V29.4871C35.8333 30.329 35.5416 31.0416 34.9583 31.625C34.375 32.2083 33.6623 32.5 32.8205 32.5H7.17954ZM7.17954 30H32.8205C32.9487 30 33.0662 29.9466 33.1731 29.8397C33.2799 29.7329 33.3333 29.6153 33.3333 29.4871V10.5129C33.3333 10.3846 33.2799 10.2671 33.1731 10.1602C33.0662 10.0534 32.9487 9.99999 32.8205 9.99999H7.17954C7.05131 9.99999 6.93377 10.0534 6.82691 10.1602C6.72008 10.2671 6.66666 10.3846 6.66666 10.5129V29.4871C6.66666 29.6153 6.72008 29.7329 6.82691 29.8397C6.93377 29.9466 7.05131 30 7.17954 30Z" fill="#1A3C3B"/>
</svg>
