<svg width="24" height="24" viewBox="0 0 24 24" fill="none" xmlns="http://www.w3.org/2000/svg">
<path d="M7.375 21.5V15.6634H5.60193C5.01806 15.6634 4.52178 15.4581 4.11307 15.0474C3.70436 14.6368 3.5 14.1381 3.5 13.5514C3.5 13.1261 3.61571 12.7333 3.84712 12.3731C4.07852 12.0128 4.38525 11.7455 4.7673 11.5712L11.25 8.69038V7.74228C10.6756 7.57689 10.2083 7.25927 9.84808 6.7894C9.48783 6.31954 9.3077 5.78717 9.3077 5.1923C9.3077 4.44443 9.56901 3.80875 10.0916 3.28525C10.6142 2.76175 11.2489 2.5 11.9955 2.5C12.7421 2.5 13.3766 2.76283 13.899 3.28848C14.4214 3.81411 14.6827 4.44872 14.6827 5.1923H13.1635C13.1635 4.85447 13.052 4.57129 12.829 4.34278C12.606 4.11424 12.3296 3.99998 12 3.99998C11.6622 3.99998 11.379 4.11424 11.1505 4.34278C10.9219 4.57129 10.8077 4.85447 10.8077 5.1923C10.8077 5.53012 10.9219 5.81329 11.1505 6.04183C11.379 6.27036 11.6622 6.38463 12 6.38463C12.2125 6.38463 12.3906 6.45649 12.5343 6.60023C12.6781 6.74398 12.75 6.9221 12.75 7.1346V8.69038L19.223 11.5712C19.6046 11.7469 19.9128 12.0142 20.1477 12.373C20.3825 12.7318 20.5 13.1235 20.5 13.5482C20.5 14.134 20.2947 14.633 19.8841 15.0452C19.4735 15.4573 18.975 15.6634 18.3884 15.6634H16.625V21.5H7.375ZM5.60193 14.1635H7.375V13.1923H16.625V14.1635H18.3884C18.5628 14.1635 18.7083 14.1026 18.825 13.9808C18.9416 13.859 19 13.7057 19 13.5211C19 13.3993 18.9695 13.2884 18.9086 13.1884C18.8477 13.0884 18.7564 13.0121 18.6346 12.9596L12 10.0077L5.37497 12.9596C5.25319 13.0121 5.16024 13.0884 5.09612 13.1884C5.03202 13.2884 4.99997 13.3993 4.99997 13.5211C4.99997 13.7057 5.05641 13.859 5.16928 13.9808C5.28214 14.1026 5.42636 14.1635 5.60193 14.1635ZM8.87498 20H15.125V14.6923H8.87498V20Z" fill="white"/>
</svg>
